<?xml version="1.0" encoding="UTF-8"?>
<svg  viewBox="0 0 534 558" version="1.1" xmlns="http://www.w3.org/2000/svg" xmlns:xlink="http://www.w3.org/1999/xlink">
    <g id="Page-1" stroke="none" stroke-width="1" fill="none" fill-rule="evenodd">
        <g id="Group-2" fill-rule="nonzero">
            <path d="M307.8,167 L223.2,167 C207.6195,167 195,179.498036 195,194.928571 L195,530.071429 C195,545.501964 207.6195,558 223.2,558 L307.8,558 C323.3805,558 336,545.501964 336,530.071429 L336,194.928571 C336,179.498036 323.3805,167 307.8,167 Z" id="Path-Copy-4" fill="#000000"></path>
            <path d="M112.8,335 L28.2,335 C12.6195,335 0,347.474063 0,362.875 L0,530.125 C0,545.525937 12.6195,558 28.2,558 L112.8,558 C128.3805,558 141,545.525937 141,530.125 L141,362.875 C141,347.474063 128.3805,335 112.8,335 Z" id="Path-Copy-5" fill="#000000"></path>
            <path d="M505.8,12.5 L421.2,12.5 C412.49331,12.5 405.5,19.4189129 405.5,27.9 L405.5,530.1 C405.5,538.581087 412.49331,545.5 421.2,545.5 L505.8,545.5 C514.50669,545.5 521.5,538.581087 521.5,530.1 L521.5,27.9 C521.5,19.4189129 514.50669,12.5 505.8,12.5 Z" id="Path-Copy-6" stroke="#000000" stroke-width="25"></path>
        </g>
    </g>
</svg>