<?xml version="1.0" encoding="UTF-8"?>
<svg width="534px" height="558px" viewBox="0 0 534 558" version="1.1" xmlns="http://www.w3.org/2000/svg" xmlns:xlink="http://www.w3.org/1999/xlink">
    <g id="Page-1" stroke="none" stroke-width="1" fill="none" fill-rule="evenodd">
        <g id="Group-3" fill="#000000" fill-rule="nonzero">
            <path d="M307.8,167 L223.2,167 C207.6195,167 195,179.498036 195,194.928571 L195,530.071429 C195,545.501964 207.6195,558 223.2,558 L307.8,558 C323.3805,558 336,545.501964 336,530.071429 L336,194.928571 C336,179.498036 323.3805,167 307.8,167 Z" id="Path-Copy-7"></path>
            <path d="M112.8,335 L28.2,335 C12.6195,335 0,347.474063 0,362.875 L0,530.125 C0,545.525937 12.6195,558 28.2,558 L112.8,558 C128.3805,558 141,545.525937 141,530.125 L141,362.875 C141,347.474063 128.3805,335 112.8,335 Z" id="Path-Copy-8"></path>
            <path d="M505.8,0 L421.2,0 C405.6195,0 393,12.48525 393,27.9 L393,530.1 C393,545.51475 405.6195,558 421.2,558 L505.8,558 C521.3805,558 534,545.51475 534,530.1 L534,27.9 C534,12.48525 521.3805,0 505.8,0 Z" id="Path-Copy-9"></path>
        </g>
    </g>
</svg>